<?xml version="1.0" encoding="UTF-8" standalone="no"?>
<svg width="26px" height="20px" viewBox="0 0 26 20" version="1.1" xmlns="http://www.w3.org/2000/svg" xmlns:xlink="http://www.w3.org/1999/xlink" xmlns:sketch="http://www.bohemiancoding.com/sketch/ns">
    <!-- Generator: Sketch 3.3.3 (12072) - http://www.bohemiancoding.com/sketch -->
    <title>medium</title>
    <desc>Created with Sketch.</desc>
    <defs></defs>
    <g id="Page-1" stroke="none" stroke-width="1" fill="none" fill-rule="evenodd" sketch:type="MSPage">
        <g id="Full-Info-Site-Copy-2" sketch:type="MSArtboardGroup" transform="translate(-733.000000, -5511.000000)" fill="#FFFFFF">
            <g id="Social-Media-2" sketch:type="MSLayerGroup" transform="translate(637.000000, 5510.000000)">
                <g id="Page-1" sketch:type="MSShapeGroup">
                    <path d="M121.073431,3.93396078 L120.080944,3.93396078 C119.71314,3.93396078 119.192084,4.46687582 119.192084,4.808 L119.192084,17.1704575 C119.192084,17.5115817 119.71314,17.9771503 120.080944,17.9771503 L121.073431,17.9771503 L121.073431,20.9111111 L112.088505,20.9111111 L112.088505,17.9771503 L113.969852,17.9771503 L113.969852,4.98222222 L113.876441,4.98222222 L109.486146,20.9111111 L106.085419,20.9111111 L101.752046,4.98222222 L101.641121,4.98222222 L101.641121,17.9771503 L103.522467,17.9771503 L103.522467,20.9111111 L96,20.9111111 L96,17.9771503 L96.9632961,17.9771503 C97.3602909,17.9771503 97.8813466,17.5115817 97.8813466,17.1704575 L97.8813466,4.808 C97.8813466,4.46687582 97.3602909,3.93396078 96.9632961,3.93396078 L96,3.93396078 L96,1 L105.406733,1 L108.493659,12.5279477 L108.579772,12.5279477 L111.695889,1 L121.073431,1 L121.073431,3.93396078" id="medium"></path>
                </g>
            </g>
        </g>
    </g>
</svg>