<?xml version="1.0" encoding="UTF-8" standalone="no"?>
<svg width="14px" height="23px" viewBox="0 0 14 23" version="1.1" xmlns="http://www.w3.org/2000/svg" xmlns:xlink="http://www.w3.org/1999/xlink" xmlns:sketch="http://www.bohemiancoding.com/sketch/ns">
    <!-- Generator: Sketch 3.3.3 (12072) - http://www.bohemiancoding.com/sketch -->
    <title>tumblr</title>
    <desc>Created with Sketch.</desc>
    <defs></defs>
    <g id="Page-1" stroke="none" stroke-width="1" fill="none" fill-rule="evenodd" sketch:type="MSPage">
        <g id="Full-Info-Site-Copy-2" sketch:type="MSArtboardGroup" transform="translate(-689.000000, -5510.000000)" fill="#FFFFFF">
            <g id="Social-Media-2" sketch:type="MSLayerGroup" transform="translate(637.000000, 5510.000000)">
                <g id="Page-1" sketch:type="MSShapeGroup">
                    <path d="M63.9974156,18.2523399 C63.5741491,18.4543791 62.7641046,18.6315294 62.1598552,18.647634 C60.3354307,18.6959477 59.9822221,17.3621961 59.9676267,16.3944575 L59.9676267,9.28062745 L64.5418239,9.28062745 L64.5418239,5.8210719 L59.9836817,5.8210719 L59.9836817,0 L56.6457146,0 C56.5917116,0 56.495382,0.0483137255 56.4822462,0.171294118 C56.2881274,1.95304575 55.4561898,5.07879739 52,6.32909804 L52,9.28062745 L54.3060726,9.28062745 L54.3060726,16.7472941 C54.3060726,19.3035294 56.1859596,22.9358431 61.1483943,22.8509281 C62.8224862,22.8216471 64.6819397,22.1174379 65.0935299,21.5113203 L63.9974156,18.2523399" id="tumblr"></path>
                </g>
            </g>
        </g>
    </g>
</svg>