<?xml version="1.0" encoding="UTF-8" standalone="no"?>
<svg width="25px" height="21px" viewBox="0 0 25 21" version="1.1" xmlns="http://www.w3.org/2000/svg" xmlns:xlink="http://www.w3.org/1999/xlink" xmlns:sketch="http://www.bohemiancoding.com/sketch/ns">
    <!-- Generator: Sketch 3.3.3 (12072) - http://www.bohemiancoding.com/sketch -->
    <title>twitter</title>
    <desc>Created with Sketch.</desc>
    <defs></defs>
    <g id="Page-1" stroke="none" stroke-width="1" fill="none" fill-rule="evenodd" sketch:type="MSPage">
        <g id="Full-Info-Site-Copy-2" sketch:type="MSArtboardGroup" transform="translate(-637.000000, -5512.000000)" fill="#FFFFFF">
            <g id="Social-Media-2" sketch:type="MSLayerGroup" transform="translate(637.000000, 5510.000000)">
                <g id="Page-1" sketch:type="MSShapeGroup">
                    <path d="M24.9741823,4.40983007 C24.0561319,4.81830065 23.0680236,5.09500654 22.0317505,5.21945098 C23.0899167,4.58405229 23.9014207,3.57678431 24.2852796,2.37626144 C23.2942522,2.96481046 22.198138,3.39231373 21.0305063,3.62363399 C20.0964009,2.62515033 18.7653008,2 17.2911658,2 C14.4611185,2 12.1667222,4.3014902 12.1667222,7.14028758 C12.1667222,7.54290196 12.2119679,7.93526797 12.2995403,8.31152941 C8.04060373,8.09631373 4.26623429,6.05103268 1.73831168,2.94138562 C1.29753072,3.69976471 1.04503036,4.58258824 1.04503036,5.52543791 C1.04503036,7.30865359 1.94994492,8.88104575 3.32483124,9.80339869 C2.48413642,9.77704575 1.69452549,9.54572549 1.00416325,9.16067974 C1.00270371,9.18117647 1.00270371,9.20313725 1.00270371,9.22509804 C1.00270371,11.715451 2.76874665,13.7929412 5.11276726,14.264366 C4.68366262,14.3814902 4.23120534,14.4444444 3.76269312,14.4444444 C3.43283717,14.4444444 3.11173846,14.4122353 2.79939698,14.3522092 C3.45181118,16.3945621 5.34337452,17.8805752 7.58522737,17.9215686 C5.83232029,19.3007059 3.62257732,20.1220392 1.22163466,20.1220392 C0.808584946,20.1220392 0.401373394,20.0971503 0,20.0503007 C2.26812456,21.5084967 4.96097514,22.3591111 7.85378266,22.3591111 C17.2794895,22.3591111 22.4331239,14.5278954 22.4331239,7.73615686 C22.4331239,7.51362092 22.4272857,7.29108497 22.4185285,7.07147712 C23.4183131,6.34677124 24.2881987,5.44052288 24.9741823,4.40983007" id="twitter"></path>
                </g>
            </g>
        </g>
    </g>
</svg>