<?xml version="1.0" encoding="UTF-8" standalone="no"?>
<svg width="24px" height="24px" viewBox="0 0 24 24" version="1.1" xmlns="http://www.w3.org/2000/svg" xmlns:xlink="http://www.w3.org/1999/xlink" xmlns:sketch="http://www.bohemiancoding.com/sketch/ns">
    <!-- Generator: Sketch 3.3.3 (12072) - http://www.bohemiancoding.com/sketch -->
    <title>twitch</title>
    <desc>Created with Sketch.</desc>
    <defs></defs>
    <g id="Page-1" stroke="none" stroke-width="1" fill="none" fill-rule="evenodd" sketch:type="MSPage">
        <g id="Full-Info-Site-Copy-2" sketch:type="MSArtboardGroup" transform="translate(-779.000000, -5510.000000)" fill="#FFFFFF">
            <g id="Social-Media-2" sketch:type="MSLayerGroup" transform="translate(637.000000, 5510.000000)">
                <g id="Page-1" sketch:type="MSShapeGroup">
                    <g id="twitch" transform="translate(142.000000, 0.000000)">
                        <path d="M17.0264567,20.6868497 L12.4580977,20.6868497 L9.41349809,23.7437908 L6.36597938,23.7437908 L6.36597938,20.6868497 L0.784699901,20.6868497 L0.784699901,4.39341176 L2.30845926,0.318954248 L23.1171155,0.318954248 L23.1171155,14.5788235 L17.0264567,20.6868497 L17.0264567,20.6868497 Z M21.0883555,13.5583791 L21.0883555,2.35545098 L4.33721932,2.35545098 L4.33721932,17.1233464 L8.90703785,17.1233464 L8.90703785,20.1758954 L11.9516375,17.1233464 L17.5343765,17.1233464 L21.0883555,13.5583791 L21.0883555,13.5583791 Z" id="Fill-4"></path>
                        <path d="M15.5041569,6.43137255 L17.5343765,6.43137255 L17.5343765,12.5408627 L15.5041569,12.5408627 L15.5041569,6.43137255 Z" id="Fill-5"></path>
                        <path d="M9.92141788,6.43137255 L11.9516375,6.43137255 L11.9516375,12.5408627 L9.92141788,12.5408627 L9.92141788,6.43137255 Z" id="Fill-6"></path>
                    </g>
                </g>
            </g>
        </g>
    </g>
</svg>